			<svg xmlns="http://www.w3.org/2000/svg" width="106" height="18" viewBox="0 0 106 18" fill="none">
									<path d="M17.5223 6.43786L11.9885 5.59258L9.5082 0.309375C9.32294 -0.08514 8.67567 -0.08514 8.49041 0.309375L6.01082 5.59258L0.477107 6.43786C0.374936 6.45355 0.279065 6.4971 0.200021 6.56371C0.120977 6.63033 0.0618171 6.71743 0.0290357 6.81547C-0.00374562 6.9135 -0.00888021 7.01867 0.0141957 7.11943C0.0372716 7.22019 0.0876657 7.31265 0.159845 7.38664L4.18 11.5073L3.22971 17.3328C3.21274 17.437 3.22543 17.5438 3.26632 17.6411C3.30722 17.7384 3.37467 17.8223 3.46096 17.8831C3.54726 17.9439 3.64892 17.9791 3.75432 17.9849C3.85972 17.9906 3.9646 17.9666 4.05699 17.9155L8.99968 15.1839L13.9424 17.9163C14.0348 17.9674 14.1396 17.9914 14.245 17.9856C14.3504 17.9799 14.4521 17.9446 14.5384 17.8838C14.6247 17.823 14.6921 17.7392 14.733 17.6419C14.7739 17.5446 14.7866 17.4377 14.7697 17.3335L13.8194 11.5081L17.8395 7.38739C17.9119 7.31342 17.9625 7.22091 17.9857 7.12004C18.0089 7.01917 18.0038 6.91386 17.971 6.81569C17.9382 6.71752 17.879 6.63031 17.7998 6.56365C17.7206 6.49698 17.6246 6.45346 17.5223 6.43786Z" fill="#FFC107"></path>
									<path d="M39.5223 6.43786L33.9885 5.59258L31.5082 0.309375C31.3229 -0.08514 30.6757 -0.08514 30.4904 0.309375L28.0108 5.59258L22.4771 6.43786C22.3749 6.45355 22.2791 6.4971 22.2 6.56371C22.121 6.63033 22.0618 6.71743 22.029 6.81547C21.9963 6.9135 21.9911 7.01867 22.0142 7.11943C22.0373 7.22019 22.0877 7.31265 22.1598 7.38664L26.18 11.5073L25.2297 17.3328C25.2127 17.437 25.2254 17.5438 25.2663 17.6411C25.3072 17.7384 25.3747 17.8223 25.461 17.8831C25.5473 17.9439 25.6489 17.9791 25.7543 17.9849C25.8597 17.9906 25.9646 17.9666 26.057 17.9155L30.9997 15.1839L35.9424 17.9163C36.0348 17.9674 36.1396 17.9914 36.245 17.9856C36.3504 17.9799 36.4521 17.9446 36.5384 17.8838C36.6247 17.823 36.6921 17.7392 36.733 17.6419C36.7739 17.5446 36.7866 17.4377 36.7697 17.3335L35.8194 11.5081L39.8395 7.38739C39.9119 7.31342 39.9625 7.22091 39.9857 7.12004C40.0089 7.01917 40.0038 6.91386 39.971 6.81569C39.9382 6.71752 39.879 6.63031 39.7998 6.56365C39.7206 6.49698 39.6246 6.45346 39.5223 6.43786Z" fill="#FFC107"></path>
									<path d="M61.5223 6.43786L55.9885 5.59258L53.5082 0.309375C53.3229 -0.08514 52.6757 -0.08514 52.4904 0.309375L50.0108 5.59258L44.4771 6.43786C44.3749 6.45355 44.2791 6.4971 44.2 6.56371C44.121 6.63033 44.0618 6.71743 44.029 6.81547C43.9963 6.9135 43.9911 7.01867 44.0142 7.11943C44.0373 7.22019 44.0877 7.31265 44.1598 7.38664L48.18 11.5073L47.2297 17.3328C47.2127 17.437 47.2254 17.5438 47.2663 17.6411C47.3072 17.7384 47.3747 17.8223 47.461 17.8831C47.5473 17.9439 47.6489 17.9791 47.7543 17.9849C47.8597 17.9906 47.9646 17.9666 48.057 17.9155L52.9997 15.1839L57.9424 17.9163C58.0348 17.9674 58.1396 17.9914 58.245 17.9856C58.3504 17.9799 58.4521 17.9446 58.5384 17.8838C58.6247 17.823 58.6921 17.7392 58.733 17.6419C58.7739 17.5446 58.7866 17.4377 58.7697 17.3335L57.8194 11.5081L61.8395 7.38739C61.9119 7.31342 61.9625 7.22091 61.9857 7.12004C62.0089 7.01917 62.0038 6.91386 61.971 6.81569C61.9382 6.71752 61.879 6.63031 61.7998 6.56365C61.7206 6.49698 61.6246 6.45346 61.5223 6.43786Z" fill="#FFC107"></path>
									<path d="M83.5223 6.43786L77.9885 5.59258L75.5082 0.309375C75.3229 -0.08514 74.6757 -0.08514 74.4904 0.309375L72.0108 5.59258L66.4771 6.43786C66.3749 6.45355 66.2791 6.4971 66.2 6.56371C66.121 6.63033 66.0618 6.71743 66.029 6.81547C65.9963 6.9135 65.9911 7.01867 66.0142 7.11943C66.0373 7.22019 66.0877 7.31265 66.1598 7.38664L70.18 11.5073L69.2297 17.3328C69.2127 17.437 69.2254 17.5438 69.2663 17.6411C69.3072 17.7384 69.3747 17.8223 69.461 17.8831C69.5473 17.9439 69.6489 17.9791 69.7543 17.9849C69.8597 17.9906 69.9646 17.9666 70.057 17.9155L74.9997 15.1839L79.9424 17.9163C80.0348 17.9674 80.1396 17.9914 80.245 17.9856C80.3504 17.9799 80.4521 17.9446 80.5384 17.8838C80.6247 17.823 80.6921 17.7392 80.733 17.6419C80.7739 17.5446 80.7866 17.4377 80.7697 17.3335L79.8194 11.5081L83.8395 7.38739C83.9119 7.31342 83.9625 7.22091 83.9857 7.12004C84.0089 7.01917 84.0038 6.91386 83.971 6.81569C83.9382 6.71752 83.879 6.63031 83.7998 6.56365C83.7206 6.49698 83.6246 6.45346 83.5223 6.43786Z" fill="#FFC107"></path>
									<path d="M105.522 6.43786L99.9885 5.59258L97.5082 0.309375C97.3229 -0.08514 96.6757 -0.08514 96.4904 0.309375L94.0108 5.59258L88.4771 6.43786C88.3749 6.45355 88.2791 6.4971 88.2 6.56371C88.121 6.63033 88.0618 6.71743 88.029 6.81547C87.9963 6.9135 87.9911 7.01867 88.0142 7.11943C88.0373 7.22019 88.0877 7.31265 88.1598 7.38664L92.18 11.5073L91.2297 17.3328C91.2127 17.437 91.2254 17.5438 91.2663 17.6411C91.3072 17.7384 91.3747 17.8223 91.461 17.8831C91.5473 17.9439 91.6489 17.9791 91.7543 17.9849C91.8597 17.9906 91.9646 17.9666 92.057 17.9155L96.9997 15.1839L101.942 17.9163C102.035 17.9674 102.14 17.9914 102.245 17.9856C102.35 17.9799 102.452 17.9446 102.538 17.8838C102.625 17.823 102.692 17.7392 102.733 17.6419C102.774 17.5446 102.787 17.4377 102.77 17.3335L101.819 11.5081L105.84 7.38739C105.912 7.31342 105.962 7.22091 105.986 7.12004C106.009 7.01917 106.004 6.91386 105.971 6.81569C105.938 6.71752 105.879 6.63031 105.8 6.56365C105.721 6.49698 105.625 6.45346 105.522 6.43786Z" fill="#FFC107"></path>
			</svg>