    <svg xmlns="http://www.w3.org/2000/svg" width="16" height="18" viewBox="0 0 16 18" fill="none">
                                        <path d="M8.00034 17.7771C7.80433 17.7771 7.60959 17.7325 7.43077 17.6434L4.86993 16.363C3.70427 15.7852 2.72384 14.8923 2.03983 13.7855C1.35582 12.6788 0.995611 11.4026 1.00004 10.1016V3.81021C1.00004 3.15091 1.49706 2.60616 2.15636 2.5438C4.00453 2.36858 5.76156 1.65847 7.21249 0.500345C7.43573 0.320865 7.71358 0.223022 8.00002 0.223022C8.28646 0.223022 8.56431 0.320865 8.78755 0.500345C10.2384 1.65857 11.9955 2.36869 13.8437 2.5438C14.1598 2.57212 14.4539 2.71785 14.668 2.95227C14.882 3.18669 15.0005 3.49278 15 3.81021V10.1016C15 12.77 13.5172 15.1692 11.1301 16.363L8.56927 17.6434C8.39237 17.7316 8.198 17.7774 8.00034 17.7771ZM7.99461 1.49566C7.10677 2.21107 6.10922 2.7784 5.04048 3.17573C4.15098 3.50753 3.22175 3.72106 2.27664 3.81085L2.27219 10.1016C2.26854 11.1661 2.5633 12.2103 3.12302 13.1158C3.68274 14.0213 4.48503 14.7519 5.43887 15.2245L7.9997 16.5049L10.5605 15.2245C11.5143 14.7518 12.3166 14.0213 12.8763 13.1158C13.436 12.2103 13.7308 11.1661 13.7272 10.1016V3.81021C11.6315 3.61371 9.6394 2.80924 7.99461 1.49566Z" fill="#23459B"></path>
                                        <path d="M7.36434 11.1994H7.36243C7.27755 11.1993 7.19355 11.1822 7.11539 11.1491C7.03724 11.1159 6.96652 11.0675 6.90741 11.0066L4.99824 9.04013C4.93915 8.98035 4.89249 8.90945 4.86095 8.83154C4.82941 8.75362 4.81362 8.67023 4.81449 8.58618C4.81536 8.50213 4.83287 8.41908 4.86601 8.34184C4.89915 8.26459 4.94727 8.19468 5.00758 8.13613C5.06789 8.07758 5.1392 8.03156 5.2174 8.00073C5.2956 7.9699 5.37913 7.95486 5.46317 7.95649C5.54721 7.95811 5.63009 7.97637 5.70703 8.01021C5.78398 8.04405 5.85346 8.0928 5.91146 8.15363L7.36625 9.65234L10.0919 6.87831C10.2101 6.75797 10.3713 6.68952 10.54 6.68803C10.7087 6.68654 10.8711 6.75212 10.9914 6.87035C11.1118 6.98858 11.1802 7.14978 11.1817 7.31847C11.1832 7.48717 11.1176 7.64955 10.9994 7.76989L7.81745 11.0091C7.75823 11.0694 7.68761 11.1172 7.60971 11.1499C7.5318 11.1826 7.44881 11.1994 7.36434 11.1994Z" fill="#23459B"></path>
                                        <path d="M8.00034 17.7771C7.80433 17.7771 7.60959 17.7325 7.43077 17.6434L4.86993 16.363C3.70427 15.7852 2.72384 14.8923 2.03983 13.7855C1.35582 12.6788 0.995611 11.4026 1.00004 10.1016V3.81021C1.00004 3.15091 1.49706 2.60616 2.15636 2.5438C4.00453 2.36858 5.76156 1.65847 7.21249 0.500345C7.43573 0.320865 7.71358 0.223022 8.00002 0.223022C8.28646 0.223022 8.56431 0.320865 8.78755 0.500345C10.2384 1.65857 11.9955 2.36869 13.8437 2.5438C14.1598 2.57212 14.4539 2.71785 14.668 2.95227C14.882 3.18669 15.0005 3.49278 15 3.81021V10.1016C15 12.77 13.5172 15.1692 11.1301 16.363L8.56927 17.6434C8.39237 17.7316 8.198 17.7774 8.00034 17.7771ZM7.99461 1.49566C7.10677 2.21107 6.10922 2.7784 5.04048 3.17573C4.15098 3.50753 3.22175 3.72106 2.27664 3.81085L2.27219 10.1016C2.26854 11.1661 2.5633 12.2103 3.12302 13.1158C3.68274 14.0213 4.48503 14.7519 5.43887 15.2245L7.9997 16.5049L10.5605 15.2245C11.5143 14.7518 12.3166 14.0213 12.8763 13.1158C13.436 12.2103 13.7308 11.1661 13.7272 10.1016V3.81021C11.6315 3.61371 9.6394 2.80924 7.99461 1.49566Z" stroke="#23459B" stroke-width="0.4"></path>
                                        <path d="M7.36434 11.1994H7.36243C7.27755 11.1993 7.19355 11.1822 7.11539 11.1491C7.03724 11.1159 6.96652 11.0675 6.90741 11.0066L4.99824 9.04013C4.93915 8.98035 4.89249 8.90945 4.86095 8.83154C4.82941 8.75362 4.81362 8.67023 4.81449 8.58618C4.81536 8.50213 4.83287 8.41908 4.86601 8.34184C4.89915 8.26459 4.94727 8.19468 5.00758 8.13613C5.06789 8.07758 5.1392 8.03156 5.2174 8.00073C5.2956 7.9699 5.37913 7.95486 5.46317 7.95649C5.54721 7.95811 5.63009 7.97637 5.70703 8.01021C5.78398 8.04405 5.85346 8.0928 5.91146 8.15363L7.36625 9.65234L10.0919 6.87831C10.2101 6.75797 10.3713 6.68952 10.54 6.68803C10.7087 6.68654 10.8711 6.75212 10.9914 6.87035C11.1118 6.98858 11.1802 7.14978 11.1817 7.31847C11.1832 7.48717 11.1176 7.64955 10.9994 7.76989L7.81745 11.0091C7.75823 11.0694 7.68761 11.1172 7.60971 11.1499C7.5318 11.1826 7.44881 11.1994 7.36434 11.1994Z" stroke="#23459B" stroke-width="0.4"></path>
                                    </svg>